<svg width="311.06123046875px" height="149.62496643066405px" xmlns="http://www.w3.org/2000/svg" viewBox="94.469384765625 0.18751678466797728 311.06123046875 149.62496643066405" style="background: rgba(0, 0, 0, 0);" preserveAspectRatio="xMidYMid"><defs><filter id="editing-extrude-glow"><feFlood flood-color="#333333" result="flood-1"></feFlood><feMorphology operator="erode" radius="1" in="SourceAlpha" result="erode"></feMorphology><feComposite operator="in" in="flood-1" in2="erode" result="comp1"></feComposite><feConvolveMatrix order="3,3" divisor="1" in="comp1" result="convolve" kernelMatrix="0 0 0 1 1 1 0 0 0"></feConvolveMatrix><feOffset dx="-3" dy="0" in="convolve" result="extrude"></feOffset><feComposite operator="in" in="flood-1" in2="extrude" result="comp-extrude"></feComposite><feFlood flood-color="#000000" result="flood-2"></feFlood><feComposite operator="in" in="flood-2" in2="SourceAlpha" result="comp2"></feComposite><feMorphology operator="dilate" radius="1" in="comp2" result="dilate"></feMorphology><feOffset dx="-4.5" dy="0" in="dilate" result="offset"></feOffset><feGaussianBlur in="offset" stdDeviation="5.8" result="blur"></feGaussianBlur><feComponentTransfer in="blur" result="shadow"><feFuncA type="linear" slope="0.8" intercept="-0.2"></feFuncA></feComponentTransfer><feMerge><feMergeNode in="shadow"></feMergeNode><feMergeNode in="comp-extrude"></feMergeNode><feMergeNode in="SourceGraphic"></feMergeNode></feMerge></filter></defs><g filter="url(#editing-extrude-glow)"><g transform="translate(145.11531674861908, 109.50500106811523)"><path d="M54.26-30.10L54.26-30.10L53.73-32.15L53.73-32.15Q53.73-32.76 54.34-32.76L54.34-32.76L54.34-32.76Q54.57-32.76 54.95-32.53L54.95-32.53L54.95-32.53Q56.70-31.24 56.70-29.11L56.70-29.11L56.70-29.11Q56.70-26.98 53.96-24.97L53.96-24.97L53.96-24.97Q51.22-22.95 47.04-22.95L47.04-22.95L47.04-22.95Q45.75-22.95 44.46-23.18L44.46-23.18L44.46-23.18Q39.22-13.53 31.69-5.40L31.69-5.40L31.69-5.40Q21.66 5.24 13.45 5.24L13.45 5.24L13.45 5.24Q1.60 5.24 1.60-8.74L1.60-8.74L1.60-8.74Q1.60-20.29 7.75-27.36L7.75-27.36L7.75-27.36Q12.92-33.44 19.61-33.44L19.61-33.44L19.61-33.44Q21.36-33.44 23.18-32.83L23.18-32.83L23.18-32.83Q27.66-31.08 27.66-25.42L27.66-25.42L27.66-25.42Q27.66-19.76 23.03-13.60L23.03-13.60L23.03-13.60Q18.39-7.45 13.53-7.45L13.53-7.45L13.53-7.45Q8.06-7.45 8.06-13.38L8.06-13.38L8.06-13.38Q8.06-15.05 8.78-16.87L8.78-16.87L8.78-16.87Q9.50-18.70 10.41-18.70L10.41-18.70L10.41-18.70Q11.10-18.70 11.10-18.01L11.10-18.01L11.10-18.01Q11.10-17.63 10.41-16.11L10.41-16.11L10.41-16.11Q9.73-14.59 9.73-13.41L9.73-13.41L9.73-13.41Q9.73-12.24 10.98-11.21L10.98-11.21L10.98-11.21Q12.24-10.18 13.60-10.18L13.60-10.18L13.60-10.18Q18.09-10.18 21.93-15.69L21.93-15.69L21.93-15.69Q25.76-21.20 25.76-26.45L25.76-26.45L25.76-26.45Q25.76-30.48 22.88-31.77L22.88-31.77L22.88-31.77Q21.89-32.15 20.82-32.15L20.82-32.15L20.82-32.15Q15.43-32.15 10.03-24.70L10.03-24.70L10.03-24.70Q4.79-17.18 4.79-8.21L4.79-8.21L4.79-8.21Q4.79-3.27 6.92-0.15L6.92-0.15L6.92-0.15Q9.12 3.04 13.00 3.04L13.00 3.04L13.00 3.04Q23.03 3.04 39.14-24.24L39.14-24.24L39.14-24.24Q30.78-26.75 30.78-34.12L30.78-34.12L30.78-34.12Q30.78-43.93 40.74-49.78L40.74-49.78L40.74-49.78Q47.04-53.43 52.97-53.43L52.97-53.43L52.97-53.43Q57.61-53.43 61.33-51.91L61.33-51.91L61.33-51.91Q66.58-49.86 66.58-45.68L66.58-45.68L66.58-45.68Q66.58-44.76 66.16-43.93L66.16-43.93L66.16-43.93Q65.74-43.09 65.28-43.09L65.28-43.09L65.28-43.09Q64.30-44.08 62.93-44.08L62.93-44.08L62.93-44.08Q56.47-44.08 45.22-24.85L45.22-24.85L45.22-24.85Q45.83-24.78 46.51-24.78L46.51-24.78L46.51-24.78Q49.10-24.78 51.68-26.30L51.68-26.30L51.68-26.30Q54.26-27.82 54.26-30.10ZM54.80-51.30L54.80-51.30L54.80-51.30Q50.92-51.30 45.87-49.06L45.87-49.06L45.87-49.06Q40.81-46.82 37.81-42.48L37.81-42.48L37.81-42.48Q34.81-38.15 34.81-32.68L34.81-32.68L34.81-32.68Q34.81-27.21 40.43-26.14L40.43-26.14L40.43-26.14Q44.61-32.98 51.22-39.79L51.22-39.79L51.22-39.79Q57.84-46.59 62.24-46.59L62.24-46.59L62.24-46.59Q63.38-46.59 64.22-46.06L64.22-46.06L64.22-46.06Q64.14-48.18 61.26-49.78L61.26-49.78L61.26-49.78Q58.67-51.30 54.80-51.30ZM56.01-24.02L56.01-24.02L56.01-24.02Q58.06-24.02 58.06-22.42L58.06-22.42L58.06-22.42Q58.06-21.96 57.84-21.51L57.84-21.51L57.84-21.51Q51.00-12.01 49.63-7.14L49.63-7.14L49.63-7.14Q67.34-24.85 71.14-24.85L71.14-24.85L71.14-24.85Q71.52-24.93 71.82-24.93L71.82-24.93L71.82-24.93Q73.95-24.93 73.95-23.03L73.95-23.03L73.95-23.03Q73.95-22.65 73.80-22.27L73.80-22.27L73.80-22.27Q73.64-21.89 70.76-18.16L70.76-18.16L70.76-18.16Q67.41-14.21 65.09-10.56L65.09-10.56L65.09-10.56Q62.78-6.92 62.78-4.48L62.78-4.48L62.78-4.48Q62.78-2.05 63.84-2.05L63.84-2.05L63.84-2.05Q67.18-2.05 75.47-11.25L75.47-11.25L75.47-11.25Q75.62-11.40 76-11.93L76-11.93L76-11.93Q77.14-13.30 77.37-13.30L77.37-13.30L77.37-13.30Q77.60-13.30 77.60-12.54L77.60-12.54L77.60-12.54Q77.60-11.78 76.53-10.56L76.53-10.56L76.53-10.56Q67.11 0.15 63.16 0.15L63.16 0.15L63.16 0.15Q59.43 0.15 59.43-3.95L59.43-3.95L59.43-3.95Q59.43-8.06 62.47-13.38L62.47-13.38L67.34-21.28L67.34-21.28Q62.17-17.48 58.14-12.96L58.14-12.96L58.14-12.96Q54.11-8.44 50.81-4.18L50.81-4.18L50.81-4.18Q47.50 0.08 46.97 0.08L46.97 0.08L46.97 0.08Q45.83 0.08 45.18-0.87L45.18-0.87L45.18-0.87Q44.54-1.82 44.54-3.23L44.54-3.23L44.54-3.23Q44.54-4.64 45.52-6.99L45.52-6.99L45.52-6.99Q46.51-9.35 48.03-12.69L48.03-12.69L43.47-7.90L43.47-7.90Q41.80-6.23 41.38-6.23L41.38-6.23L41.38-6.23Q40.96-6.23 40.96-6.73L40.96-6.73L40.96-6.73Q40.96-7.22 41.57-7.83L41.57-7.83L41.57-7.83Q44.38-10.64 46.44-13.22L46.44-13.22L46.44-13.22Q48.41-15.81 54.57-23.10L54.57-23.10L54.57-23.10Q55.25-24.02 56.01-24.02ZM105.41-37.16L105.41-37.16L105.41-37.16Q105.41-34.81 104.04-34.81L104.04-34.81L104.04-34.81Q103.66-34.81 103.28-35.42L103.28-35.42L103.28-35.42Q102.60-36.63 101.00-36.63L101.00-36.63L101.00-36.63Q97.51-36.63 94.47-31.62L94.47-31.62L94.47-31.62Q93.86-30.63 90.67-24.47L90.67-24.47L91.58-24.47L91.58-24.47Q99.86-24.47 102.60-24.70L102.60-24.70L102.60-24.70Q102.90-24.62 102.90-24.40L102.90-24.40L102.90-24.40Q102.90-23.79 97.51-22.72L97.51-22.72L97.51-22.72Q92.42-21.89 89.15-21.28L89.15-21.28L89.15-21.28Q86.79-16.42 83.45-9.73L83.45-9.73L83.45-9.73Q76.61 3.04 74.40 6.16L74.40 6.16L74.40 6.16Q67.79 15.58 61.48 15.58L61.48 15.58L61.48 15.58Q59.28 15.58 57.65 13.72L57.65 13.72L57.65 13.72Q56.01 11.86 55.94 9.58L55.94 9.58L55.94 9.58Q56.16 8.66 56.62 8.66L56.62 8.66L56.62 8.66Q56.85 8.66 56.92 9.20L56.92 9.20L56.92 9.20Q57.38 11.17 58.44 12.24L58.44 12.24L58.44 12.24Q59.51 13.30 60.65 13.30L60.65 13.30L60.65 13.30Q67.11 13.30 72.43 5.32L72.43 5.32L72.43 5.32Q75.47 0.76 80.71-11.10L80.71-11.10L84.82-20.98L84.82-20.98Q77.22-21.05 77.22-22.80L77.22-22.80L77.22-22.80Q77.22-23.56 77.94-24.09L77.94-24.09L77.94-24.09Q78.66-24.62 79.19-24.62L79.19-24.62L86.34-24.47L86.34-24.47Q93.78-41.04 100.02-41.04L100.02-41.04L100.02-41.04Q102.37-41.04 104.80-38.76L104.80-38.76L104.80-38.76Q105.41-38.15 105.41-37.16ZM118.03-22.72L118.03-22.72L119.09-22.95L119.09-22.95Q119.93-22.95 120.69-22.27L120.69-22.27L120.69-22.27Q121.45-21.58 121.45-21.20L121.45-21.20L121.45-21.20Q121.45-20.82 116.74-13.87L116.74-13.87L116.74-13.87Q112.02-6.92 112.02-4.18L112.02-4.18L112.02-4.18Q112.02-3.95 112.10-3.72L112.10-3.72L112.10-3.72Q112.48-1.98 113.77-1.98L113.77-1.98L113.77-1.98Q117.72-1.98 128.21-15.05L128.21-15.05L128.21-15.05Q128.44-15.35 128.74-15.35L128.74-15.35L128.74-15.35Q129.05-15.35 129.05-14.78L129.05-14.78L129.05-14.78Q129.05-14.21 128.36-13.30L128.36-13.30L128.36-13.30Q118.64-0.30 113.54-0.30L113.54-0.30L113.54-0.30Q112.86-0.30 112.25-0.53L112.25-0.53L112.25-0.53Q108.91-1.82 108.91-5.55L108.91-5.55L108.91-5.55Q108.91-6.84 109.21-8.13L109.21-8.13L104.50-3.57L104.50-3.57Q100.02 0.38 98.00 0.38L98.00 0.38L98.00 0.38Q95.99 0.38 94.16-0.91L94.16-0.91L94.16-0.91Q92.11-2.43 92.11-4.94L92.11-4.94L92.11-4.94Q92.11-10.49 99.86-18.20L99.86-18.20L99.86-18.20Q107.62-25.92 114.08-25.92L114.08-25.92L114.08-25.92Q116.58-25.92 117.42-24.17L117.42-24.17L117.42-24.17Q117.65-23.56 117.80-23.14L117.80-23.14L117.80-23.14Q117.95-22.72 118.03-22.72ZM95.30-4.03L95.30-4.03L95.30-4.03Q95.30-1.29 97.20-1.29L97.20-1.29L97.20-1.29Q101.61-1.29 109.21-10.94L109.21-10.94L117.27-22.04L117.27-22.04Q116.66-23.10 115.29-23.10L115.29-23.10L115.29-23.10Q110.66-23.10 102.98-15.92L102.98-15.92L102.98-15.92Q95.30-8.74 95.30-4.03ZM136.34-24.02L136.34-24.02L136.34-24.02Q138.40-24.02 138.40-22.42L138.40-22.42L138.40-22.42Q138.40-21.96 138.17-21.51L138.17-21.51L138.17-21.51Q131.33-12.01 129.96-7.14L129.96-7.14L129.96-7.14Q147.67-24.85 151.47-24.85L151.47-24.85L151.47-24.85Q151.85-24.93 152.15-24.93L152.15-24.93L152.15-24.93Q154.28-24.93 154.28-23.03L154.28-23.03L154.28-23.03Q154.28-22.65 154.13-22.27L154.13-22.27L154.13-22.27Q153.98-21.89 151.09-18.16L151.09-18.16L151.09-18.16Q147.74-14.21 145.43-10.56L145.43-10.56L145.43-10.56Q143.11-6.92 143.11-4.48L143.11-4.48L143.11-4.48Q143.11-2.05 144.17-2.05L144.17-2.05L144.17-2.05Q147.52-2.05 155.80-11.25L155.80-11.25L155.80-11.25Q155.95-11.40 156.33-11.93L156.33-11.93L156.33-11.93Q157.47-13.30 157.70-13.30L157.70-13.30L157.70-13.30Q157.93-13.30 157.93-12.54L157.93-12.54L157.93-12.54Q157.93-11.78 156.86-10.56L156.86-10.56L156.86-10.56Q147.44 0.15 143.49 0.15L143.49 0.15L143.49 0.15Q139.76 0.15 139.76-3.95L139.76-3.95L139.76-3.95Q139.76-8.06 142.80-13.38L142.80-13.38L147.67-21.28L147.67-21.28Q142.50-17.48 138.47-12.96L138.47-12.96L138.47-12.96Q134.44-8.44 131.14-4.18L131.14-4.18L131.14-4.18Q127.83 0.08 127.30 0.08L127.30 0.08L127.30 0.08Q126.16 0.08 125.51-0.87L125.51-0.87L125.51-0.87Q124.87-1.82 124.87-3.23L124.87-3.23L124.87-3.23Q124.87-4.64 125.86-6.99L125.86-6.99L125.86-6.99Q126.84-9.35 128.36-12.69L128.36-12.69L123.80-7.90L123.80-7.90Q122.13-6.23 121.71-6.23L121.71-6.23L121.71-6.23Q121.30-6.23 121.30-6.73L121.30-6.73L121.30-6.73Q121.30-7.22 121.90-7.83L121.90-7.83L121.90-7.83Q124.72-10.64 126.77-13.22L126.77-13.22L126.77-13.22Q128.74-15.81 134.90-23.10L134.90-23.10L134.90-23.10Q135.58-24.02 136.34-24.02ZM174.57-24.47L174.57-24.47L185.52-24.62L185.52-24.62Q185.74-24.47 185.74-24.40L185.74-24.40L185.74-24.40Q185.74-23.71 176.28-22.50L176.28-22.50L176.28-22.50Q166.82-21.28 166.06-21.05L166.06-21.05L166.06-21.05Q164.62-19.76 160.74-13.34L160.74-13.34L160.74-13.34Q156.86-6.92 156.86-3.95L156.86-3.95L156.86-3.95Q156.86-1.14 160.74-1.14L160.74-1.14L160.74-1.14Q162.56-1.14 165.53-2.28L165.53-2.28L165.53-2.28Q168.49-3.42 170.09-4.41L170.09-4.41L170.09-4.41Q174.34-7.07 179.21-12.24L179.21-12.24L179.21-12.24Q180.27-13.30 180.65-13.30L180.65-13.30L180.65-13.30Q180.88-13.30 180.88-12.84L180.88-12.84L180.88-12.84Q180.88-12.39 179.74-11.02L179.74-11.02L179.74-11.02Q175.79-6.16 170.85-3.19L170.85-3.19L170.85-3.19Q164.92 0.46 159.52 0.46L159.52 0.46L159.52 0.46Q157.17 0.46 155.69-0.57L155.69-0.57L155.69-0.57Q154.20-1.60 154.20-4.71L154.20-4.71L154.20-4.71Q154.20-7.83 156.94-13.26L156.94-13.26L156.94-13.26Q159.68-18.70 161.12-21.36L161.12-21.36L161.12-21.36Q160.06-21.13 159.30-21.13L159.30-21.13L159.30-21.13Q157.09-21.13 157.09-22.88L157.09-22.88L157.09-22.88Q157.09-24.17 158.92-24.70L158.92-24.70L158.92-24.70Q159.14-24.70 159.60-24.78L159.60-24.78L164.01-24.78L164.01-24.78Q165.38-26.52 167.12-28.80L167.12-28.80L167.12-28.80Q169.25-31.54 170.01-31.54L170.01-31.54L170.01-31.54Q170.77-31.54 171.91-30.93L171.91-30.93L171.91-30.93Q173.05-30.32 173.05-29.49L173.05-29.49L173.05-29.49Q173.05-28.65 169.40-24.55L169.40-24.55L169.40-24.55Q171.38-24.47 174.57-24.47ZM202.54-22.72L202.54-22.72L203.60-22.95L203.60-22.95Q204.44-22.95 205.20-22.27L205.20-22.27L205.20-22.27Q205.96-21.58 205.96-21.20L205.96-21.20L205.96-21.20Q205.96-20.82 201.25-13.87L201.25-13.87L201.25-13.87Q196.54-6.92 196.54-4.18L196.54-4.18L196.54-4.18Q196.54-3.95 196.61-3.72L196.61-3.72L196.61-3.72Q196.99-1.98 198.28-1.98L198.28-1.98L198.28-1.98Q202.24-1.98 212.72-15.05L212.72-15.05L212.72-15.05Q212.95-15.35 213.26-15.35L213.26-15.35L213.26-15.35Q213.56-15.35 213.56-14.78L213.56-14.78L213.56-14.78Q213.56-14.21 212.88-13.30L212.88-13.30L212.88-13.30Q203.15-0.30 198.06-0.30L198.06-0.30L198.06-0.30Q197.37-0.30 196.76-0.53L196.76-0.53L196.76-0.53Q193.42-1.82 193.42-5.55L193.42-5.55L193.42-5.55Q193.42-6.84 193.72-8.13L193.72-8.13L189.01-3.57L189.01-3.57Q184.53 0.38 182.51 0.38L182.51 0.38L182.51 0.38Q180.50 0.38 178.68-0.91L178.68-0.91L178.68-0.91Q176.62-2.43 176.62-4.94L176.62-4.94L176.62-4.94Q176.62-10.49 184.38-18.20L184.38-18.20L184.38-18.20Q192.13-25.92 198.59-25.92L198.59-25.92L198.59-25.92Q201.10-25.92 201.93-24.17L201.93-24.17L201.93-24.17Q202.16-23.56 202.31-23.14L202.31-23.14L202.31-23.14Q202.46-22.72 202.54-22.72ZM179.82-4.03L179.82-4.03L179.82-4.03Q179.82-1.29 181.72-1.29L181.72-1.29L181.72-1.29Q186.12-1.29 193.72-10.94L193.72-10.94L201.78-22.04L201.78-22.04Q201.17-23.10 199.80-23.10L199.80-23.10L199.80-23.10Q195.17-23.10 187.49-15.92L187.49-15.92L187.49-15.92Q179.82-8.74 179.82-4.03Z" fill="#ffffff"></path></g></g><style>text {
  font-size: 64px;
  font-family: Arial Black;
  dominant-baseline: central;
  text-anchor: middle;
}</style></svg>